<svg width="188" height="31" viewBox="0 0 188 188" fill="#FFF" xmlns="http://www.w3.org/2000/svg">
 <rect x="0" height="188" y="0" width="188" style="fill: white;"/>

<path  transform="translate(0,75)"  fill-rule="evenodd" clip-rule="evenodd" d="M188 0.145216C188 0.145216 186.361 10.5163 186.065 12.3347C183.752 26.5511 181.101 30.7994 170.508 30.9971C166.136 31.0794 163.497 29.339 162.227 27.0824C159.616 29.903 156.367 30.9968 152.655 30.9968C145.635 30.9968 142.782 26.8028 143.942 20.0689L145.945 7.71801C146.119 6.73996 145.96 6.29389 144.857 6.29389L142.892 6.29281L143.986 0.0219262L149.409 0C154.466 0 156.352 2.45106 155.424 7.51564L153.335 19.7149C153.045 21.6142 152.944 23.5721 155.497 23.5721C157.527 23.5721 159.065 22.043 159.627 19.166L162.941 0.134433L172.365 0.144856L168.85 19.8788C168.436 22.4819 168.986 23.645 170.79 23.6249C174.455 23.5842 175.08 20.0483 176.253 13.4175L176.253 13.415C176.407 12.5472 176.57 11.6265 176.75 10.6536L178.512 0.144856H188V0.145216ZM66.9234 19.0991L68.9805 6.68281L66.3781 6.71911C60.8754 6.71911 58.8654 15.1287 58.8654 19.7386C58.8654 22.2162 59.8927 24.2237 62.2431 24.2237C64.5359 24.2241 66.0698 22.8223 66.9234 19.0991ZM75.3128 23.59C75.1408 24.5699 75.3056 24.8977 76.585 24.8977H78.5152L77.4829 30.9986H71.9208C68.4245 30.9986 67.2563 29.4422 67.0843 27.137C65.4219 29.903 61.9492 30.9986 58.6816 30.9986C51.7458 30.9986 49.5177 26.2981 49.5177 20.5362C49.5177 8.83876 55.7799 0.0765608 68.4481 0.022644H79.1145L75.3128 23.59ZM41.9532 23.5009C41.7812 24.3653 41.7394 24.9354 42.8271 24.9376L45.0548 24.9351L44.0153 30.9982L38.1143 30.9975C33.4744 31.0284 31.7501 28.8376 32.4989 24.0663L34.4573 11.7966C34.7441 9.66474 34.9733 7.59038 32.3938 7.59038C30.273 7.59038 28.6886 9.42176 28.0582 13.1672L25.0878 30.8734H15.7068L18.9225 11.8545C19.3813 9.31896 19.1521 7.64825 16.8593 7.64825C14.2798 7.64825 13.0812 9.99112 12.4508 13.2182L9.37776 30.9112H0L3.82927 8.1867L3.89792 7.79455C4.07171 6.81542 3.8779 6.32334 2.7755 6.32334L0.883568 6.31471L1.95701 0.0377197L7.73077 0.0423925C13.3111 0.0423925 13.6894 3.73174 13.4974 4.59333C15.6242 1.47406 18.8971 0.0423925 22.1346 0.0423925C25.0581 0.0423925 28.0367 1.25229 28.7819 4.76694C30.8455 1.71273 33.602 0.0420331 37.5572 0.0420331C43.0599 0.0420331 45.2193 3.29573 44.0725 9.92211L41.9532 23.5009ZM92.2311 18.0607C92.2311 21.3446 93.5598 23.4049 96.7476 23.4919C99.1984 23.5591 101.996 23.2741 104.637 22.3126L103.39 30.023C99.9747 30.812 97.4452 30.9978 94.1434 30.9978C86.6643 30.9978 82.2583 26.99 82.2583 19.3277C82.2583 5.6742 91.3042 0.0132995 101.464 0.0039539C106.05 0 108.209 0 108.209 0L106.917 7.75575L101.725 7.74317C94.693 7.69357 92.2311 11.7812 92.2311 18.0607ZM128.298 6.68281L126.24 19.0991C125.387 22.8223 123.853 24.2241 121.56 24.2237C119.21 24.2237 118.182 22.2162 118.182 19.7386C118.182 15.1287 120.192 6.71911 125.695 6.71911L128.298 6.68281ZM135.902 24.8977C134.623 24.8977 134.458 24.5699 134.63 23.59L138.466 0.022644H127.766C115.098 0.0765608 108.835 8.83876 108.835 20.5362C108.835 26.2981 111.065 30.9986 118 30.9986C121.268 30.9986 124.739 29.903 126.402 27.137C126.574 29.4422 127.944 30.9907 131.44 30.9907L136.8 30.9986L137.832 24.8977H135.902Z" fill="#1C1C1C"/>
</svg>
